<svg width="437" height="233" viewBox="0 0 437 233" fill="none" xmlns="http://www.w3.org/2000/svg">
<g clip-path="url(#clip0)">
<g opacity="0.5">
<path opacity="0.5" d="M76.0055 105.76L64.9762 99.4295L59.407 101.067L70.5455 107.288L76.0055 105.76Z" fill="#7BDAFF"/>
<path opacity="0.5" d="M73.3835 71.0526L75.0216 76.8372L86.0508 83.0583L84.522 77.2737L73.3835 71.0526Z" fill="#7BDAFF"/>
<path opacity="0.5" d="M14.9592 76.073L26.0977 82.2942L24.4597 76.837L13.4304 70.5067L14.9592 76.073Z" fill="#7BDAFF"/>
<path opacity="0.5" d="M76.9858 83.9311L80.1526 95.1729L72.0718 97.4649L83.1011 103.686L91.2911 101.394L88.1243 90.1523L76.9858 83.9311Z" fill="#7BDAFF"/>
<path opacity="0.5" d="M22.4951 69.7425L20.2019 61.5567L57.221 51.1881L46.0825 44.967L9.17261 55.3356L11.4658 63.5213L22.4951 69.7425Z" fill="#7BDAFF"/>
<path opacity="0.5" d="M48.5926 104.013L33.4137 108.379L29.0456 93.0989L18.0164 86.8778L27.1892 119.402L59.7311 110.234L48.5926 104.013Z" fill="#7BDAFF"/>
<path opacity="0.5" d="M53.1804 43.0024L64.3189 49.2236L67.8133 51.1882L78.8426 57.4093L73.2734 37.327L53.1804 43.0024Z" fill="#7BDAFF"/>
<path opacity="0.5" d="M69.7788 58.2825L71.4168 63.9579L82.4461 70.1791L80.9173 64.5036L69.7788 58.2825Z" fill="#7BDAFF"/>
</g>
<path d="M120.341 106.306H98.8281L106.581 98.5566H128.094L120.341 106.306ZM102.759 104.669H119.576L124.054 100.194H107.237L102.759 104.669Z" fill="white"/>
<path d="M124.489 63.0847H103.086L95.0049 55.1173H116.517L124.489 63.0847ZM103.741 61.4476H120.558L115.862 56.7544H99.0453L103.741 61.4476Z" fill="white"/>
<path d="M45.2072 106.306H23.6947L15.9414 98.5566H37.454L45.2072 106.306ZM24.4591 104.669H41.276L36.7988 100.194H19.9818L24.4591 104.669Z" fill="white"/>
<path d="M134.206 92.3349H112.694L122.522 82.512L109.199 69.3057H130.712L144.034 82.6211L134.206 92.3349ZM116.734 90.6977H133.551L141.741 82.512L130.057 70.9428H113.24L124.924 82.6211L116.734 90.6977Z" fill="white"/>
<path d="M31.3407 92.3351H9.82808L0 82.5122L41.7147 40.8196H63.2273L21.5126 82.6214L31.3407 92.3351ZM10.4833 90.698H27.3002L19.1102 82.5122L59.1869 42.5658H42.3699L2.29322 82.6214L10.4833 90.698Z" fill="white"/>
<path d="M72.0727 154.547L34.0708 116.565H55.5834L72.0727 133.046L88.562 116.565H110.075L72.0727 154.547ZM38.002 118.202L72.0727 152.255L106.143 118.202H89.2172L72.0727 135.447L54.819 118.202H38.002Z" fill="white"/>
<path d="M96.2041 34.7075H47.8281L72.0707 10.5869L96.2041 34.7075ZM51.8686 33.0704H92.2729L72.0707 12.8789L51.8686 33.0704Z" fill="white"/>
<path d="M110.402 48.8961H88.8896L80.918 40.9287H102.431L110.402 48.8961ZM89.5448 47.259H106.362L101.666 42.5658H84.8492L89.5448 47.259Z" fill="white"/>
<g opacity="0.5">
<path opacity="0.5" d="M432.679 70.9866V70.8374V70.6882V70.539C432.082 69.1961 431.186 67.8532 429.992 67.2563L429.694 67.1071L390.281 44.2778L350.868 21.4486L350.57 21.2993C349.376 20.7025 348.331 20.7025 347.286 21.1501C347.286 21.1501 347.286 21.1501 347.136 21.1501C347.136 21.1501 347.136 21.1501 346.987 21.1501L341.762 24.1344L344.748 25.4773L334.297 80.6853C333.999 82.1774 334.297 83.6695 334.894 85.1616V85.3109C334.894 85.3109 334.894 85.3109 334.894 85.4601C335.492 86.803 336.387 88.1459 337.582 88.7427L416.257 134.103L415.511 137.535L420.438 134.7C420.438 134.7 420.438 134.7 420.587 134.7C421.483 134.252 422.229 133.208 422.528 131.715L433.127 75.1645C433.426 73.8216 433.277 72.3295 432.679 70.9866Z" fill="white"/>
<g opacity="0.5">
<path opacity="0.5" d="M412.078 137.534L332.507 91.5775C330.118 90.2346 328.625 86.5043 329.222 83.2217L339.673 27.566C340.27 24.4326 342.659 22.9405 345.047 24.2834L424.619 70.2403C427.007 71.5832 428.5 75.3135 427.903 78.5962L417.453 134.252C416.856 137.534 414.467 138.877 412.078 137.534Z" fill="url(#paint0_linear)"/>
<path opacity="0.5" d="M424.471 70.0916L385.059 47.2623L372.667 112.766L411.781 137.386C414.319 138.878 416.857 137.684 417.454 134.7L428.054 78.149C428.651 75.1648 427.009 71.5837 424.471 70.0916Z" fill="url(#paint1_linear)"/>
<path opacity="0.5" d="M345.495 24.5818L384.908 47.4111L372.666 112.467L332.806 91.876C330.268 90.3838 328.626 86.8028 329.074 83.8186L339.673 27.2676C340.42 24.2834 342.957 23.0897 345.495 24.5818Z" fill="url(#paint2_linear)"/>
<path opacity="0.5" d="M329.672 87.9975C330.269 89.6388 331.463 90.9817 332.807 91.877L411.632 137.386C412.976 138.132 414.468 138.132 415.514 137.536L380.132 72.4795L329.672 87.9975Z" fill="url(#paint3_linear)"/>
<path opacity="0.5" d="M427.603 73.9696C427.006 72.3283 425.812 70.9854 424.468 70.0901L345.643 24.5808C344.3 23.8347 342.807 23.8347 341.762 24.4316L376.994 89.3383L427.603 73.9696Z" fill="url(#paint4_linear)"/>
</g>
</g>
<path d="M123.299 103.419C123.299 103.297 123.421 103.175 123.421 103.053C123.421 102.931 123.543 102.931 123.543 102.809C123.543 102.687 123.665 102.687 123.665 102.565C124.886 99.6377 126.838 97.1981 129.157 95.8564L129.767 95.4905L211.169 48.5297L292.57 1.56892L293.18 1.20299C295.499 -0.138746 297.939 -0.138746 299.892 0.837062C299.892 0.837062 300.014 0.837063 300.014 0.959039C300.014 0.959039 300.136 0.959038 300.136 1.08101L310.876 7.30179L304.896 9.74131L326.375 123.667C326.985 126.594 326.497 129.888 325.154 132.815C325.154 132.937 325.032 132.937 325.032 133.059C325.032 133.181 324.91 133.181 324.91 133.303C323.69 136.23 321.737 138.67 319.418 140.012L157.105 233.811L158.569 241.008L148.44 235.153C148.44 235.153 148.318 235.153 148.318 235.031C146.365 233.933 144.778 231.86 144.29 228.932L122.201 112.201C121.713 109.396 122.201 106.224 123.299 103.419Z" fill="white"/>
<path d="M165.899 240.886L330.043 146.111C335.047 143.305 337.976 135.499 336.755 128.912L315.032 13.8885C313.812 7.30184 308.686 4.25244 303.804 7.05789L139.66 101.955C134.656 104.761 131.727 112.567 132.948 119.154L154.671 234.177C155.891 240.764 161.017 243.813 165.899 240.886Z" fill="url(#paint5_linear)"/>
<path d="M140.388 101.59L221.789 54.6289L247.295 189.778L166.626 240.52C161.257 243.57 156.009 241.13 154.91 234.909L132.821 118.3C131.601 112.08 135.018 104.639 140.388 101.59Z" fill="url(#paint6_linear)"/>
<path d="M303.189 7.5453L221.788 54.5061L247.172 188.802L329.428 146.476C334.797 143.427 338.093 135.864 336.994 129.765L315.027 13.0342C313.806 6.93542 308.559 4.4959 303.189 7.5453Z" fill="url(#paint7_linear)"/>
<path d="M336.018 138.548C334.675 141.842 332.357 144.891 329.55 146.477L166.748 240.52C163.819 242.228 161.012 242.228 158.815 240.886L231.795 106.469L336.018 138.548Z" fill="url(#paint8_linear)"/>
<path d="M133.796 109.518C135.139 106.224 137.457 103.175 140.264 101.589L303.188 7.54564C306.117 5.83798 308.924 5.83798 311.121 7.17971L238.263 141.475L133.796 109.518Z" fill="url(#paint9_linear)"/>
</g>
<defs>
<linearGradient id="paint0_linear" x1="334.531" y1="55.4888" x2="428.995" y2="73.3173" gradientUnits="userSpaceOnUse">
<stop stop-color="#7BDAFF"/>
<stop offset="1" stop-color="#59BDEF"/>
</linearGradient>
<linearGradient id="paint1_linear" x1="431.533" y1="180.751" x2="383.726" y2="90.4204" gradientUnits="userSpaceOnUse">
<stop offset="0.7677" stop-color="#59BDEF"/>
<stop offset="0.8452" stop-color="#55B8EB"/>
<stop offset="0.9318" stop-color="#49ABE1"/>
<stop offset="1" stop-color="#3A9BD5"/>
</linearGradient>
<linearGradient id="paint2_linear" x1="302.113" y1="105.934" x2="368.899" y2="77.544" gradientUnits="userSpaceOnUse">
<stop offset="0.7677" stop-color="#59BDEF"/>
<stop offset="0.8452" stop-color="#55B8EB"/>
<stop offset="0.9318" stop-color="#49ABE1"/>
<stop offset="1" stop-color="#3A9BD5"/>
</linearGradient>
<linearGradient id="paint3_linear" x1="359.68" y1="181.422" x2="407.28" y2="98.9666" gradientUnits="userSpaceOnUse">
<stop offset="0.7677" stop-color="#3A9BD5"/>
<stop offset="0.8386" stop-color="#3896D2"/>
<stop offset="0.9179" stop-color="#3189C9"/>
<stop offset="1" stop-color="#2573BA"/>
</linearGradient>
<linearGradient id="paint4_linear" x1="358.195" y1="16.1273" x2="446.773" y2="83.5353" gradientUnits="userSpaceOnUse">
<stop stop-color="#7BDAFF"/>
<stop offset="1" stop-color="#59BDEF"/>
</linearGradient>
<linearGradient id="paint5_linear" x1="326.009" y1="71.4619" x2="130.933" y2="108.279" gradientUnits="userSpaceOnUse">
<stop stop-color="#7BDAFF"/>
<stop offset="1" stop-color="#59BDEF"/>
</linearGradient>
<linearGradient id="paint6_linear" x1="125.69" y1="330.139" x2="224.417" y2="143.599" gradientUnits="userSpaceOnUse">
<stop offset="0.7677" stop-color="#59BDEF"/>
<stop offset="0.8452" stop-color="#55B8EB"/>
<stop offset="0.9318" stop-color="#49ABE1"/>
<stop offset="1" stop-color="#3A9BD5"/>
</linearGradient>
<linearGradient id="paint7_linear" x1="392.95" y1="175.636" x2="255.032" y2="117.008" gradientUnits="userSpaceOnUse">
<stop offset="0.7677" stop-color="#59BDEF"/>
<stop offset="0.8452" stop-color="#55B8EB"/>
<stop offset="0.9318" stop-color="#49ABE1"/>
<stop offset="1" stop-color="#3A9BD5"/>
</linearGradient>
<linearGradient id="paint8_linear" x1="274.072" y1="331.523" x2="175.773" y2="161.246" gradientUnits="userSpaceOnUse">
<stop offset="0.7677" stop-color="#40A8E6"/>
<stop offset="0.8386" stop-color="#40A4E3"/>
<stop offset="0.9179" stop-color="#3E9DE1"/>
<stop offset="1" stop-color="#3B91DF"/>
</linearGradient>
<linearGradient id="paint9_linear" x1="277.133" y1="-9.82089" x2="94.2111" y2="129.383" gradientUnits="userSpaceOnUse">
<stop stop-color="#7BDAFF"/>
<stop offset="1" stop-color="#59BDEF"/>
</linearGradient>
<clipPath id="clip0">
<rect width="437" height="233" fill="white"/>
</clipPath>
</defs>
</svg>
