<svg width="80" height="80" viewBox="0 0 80 80" fill="none" xmlns="http://www.w3.org/2000/svg">
<g clip-path="url(#clip0)">
<path d="M31.5912 25.6497L31.0804 25.8601C30.2207 24.3581 28.6032 23.3431 26.7521 23.3431H18.8431C16.0945 23.3431 13.8584 25.5792 13.8584 28.3278V50.8226C13.8584 53.5712 16.0946 55.8073 18.8431 55.8073H26.7521C28.3181 55.8073 29.717 55.0808 30.6315 53.9478C33.3837 55.1672 36.3895 55.8073 39.4009 55.8073H56.1129C58.9157 55.8073 61.196 53.527 61.196 50.7242C61.196 49.8473 60.9728 49.0217 60.5803 48.3008C62.3271 47.4956 63.5432 45.7289 63.5432 43.6826C63.5432 42.8415 63.3367 42.0483 62.9735 41.3487C64.83 40.5908 66.142 38.7667 66.142 36.6411C66.142 34.5154 64.83 32.6914 62.9735 31.9336C63.3367 31.234 63.5432 30.4408 63.5432 29.5997C63.5432 26.7969 61.2629 24.5164 58.4601 24.5164H50.1334C49.3464 24.5164 48.706 23.8761 48.706 23.089V18.4926C48.706 13.9101 44.9781 10.182 40.3954 10.182C38.3861 10.182 36.7512 11.8169 36.7512 13.8262V17.9431C36.751 21.3334 34.7257 24.3584 31.5912 25.6497ZM26.752 52.6823H18.8429C17.8175 52.6823 16.9832 51.8479 16.9832 50.8226V28.3278C16.9832 27.3025 17.8175 26.4681 18.8429 26.4681H26.752C27.7775 26.4681 28.6117 27.3025 28.6117 28.3278V50.8226C28.6117 51.8479 27.7775 52.6823 26.752 52.6823ZM39.876 17.9434V13.8265C39.876 13.5403 40.109 13.3073 40.3953 13.3073C43.2546 13.3073 45.5809 15.6336 45.5809 18.4929V23.0893C45.5809 25.5995 47.6229 27.6417 50.1332 27.6417H58.46C59.5396 27.6417 60.4181 28.5201 60.4181 29.6C60.4181 30.6797 59.5396 31.5581 58.46 31.5581H48.7081C47.8453 31.5581 47.1456 32.2576 47.1456 33.1206C47.1456 33.9834 47.8453 34.6831 48.7081 34.6831H61.0585C62.1384 34.6831 63.0168 35.5615 63.0168 36.6412C63.0168 37.7211 62.1384 38.5995 61.0585 38.5995H48.7081C47.8453 38.5995 47.1456 39.299 47.1456 40.162C47.1456 41.0248 47.8453 41.7245 48.7081 41.7245H58.46C59.5396 41.7245 60.4181 42.6029 60.4181 43.6826C60.4181 44.7623 59.5396 45.6408 58.46 45.6408H48.7081C47.8453 45.6408 47.1456 46.3404 47.1456 47.2033C47.1456 48.0661 47.8453 48.7658 48.7081 48.7658H56.1129C57.1926 48.7658 58.071 49.6442 58.071 50.724C58.071 51.8037 57.1926 52.6822 56.1129 52.6822H39.4007C36.7632 52.6822 34.1315 52.1067 31.7318 51.0145C31.7343 50.9508 31.7367 50.8869 31.7367 50.8225V28.9694L32.7815 28.539C37.0912 26.7636 39.876 22.6047 39.876 17.9434Z" fill="#092C6D"/>
<path d="M65.9375 3.125H47.0312C46.1684 3.125 45.4688 3.82469 45.4688 4.6875C45.4688 5.55031 46.1684 6.25 47.0312 6.25H65.9375C71.9684 6.25 76.875 11.1566 76.875 17.1875V53.4375C76.875 59.4684 71.9684 64.375 65.9375 64.375H45.4127C44.8545 64.375 44.3386 64.6728 44.0595 65.1562L40 72.1875L35.9405 65.1562C35.6614 64.6728 35.1456 64.375 34.5873 64.375H14.0625C8.03156 64.375 3.125 59.4684 3.125 53.4375V17.1875C3.125 11.1566 8.03156 6.25 14.0625 6.25H32.9686C33.8316 6.25 34.5311 5.55031 34.5311 4.6875C34.5311 3.82469 33.8316 3.125 32.9686 3.125H14.0625C6.30844 3.125 0 9.43344 0 17.1875V53.4375C0 61.1916 6.30844 67.5 14.0625 67.5H33.6852L38.6467 76.0938C38.9258 76.5772 39.4416 76.875 39.9998 76.875C40.558 76.875 41.0739 76.5772 41.353 76.0938L46.3145 67.5H65.9375C73.6916 67.5 80 61.1916 80 53.4375V17.1875C80 9.43344 73.6916 3.125 65.9375 3.125Z" fill="#092C6D"/>
<path d="M40 6.25C40.4109 6.25 40.8125 6.08281 41.1045 5.79203C41.3953 5.50156 41.5625 5.09844 41.5625 4.6875C41.5625 4.27656 41.3953 3.87344 41.1045 3.58281C40.8141 3.29203 40.4109 3.125 40 3.125C39.5891 3.125 39.1859 3.29203 38.8953 3.58281C38.6047 3.87344 38.4375 4.27656 38.4375 4.6875C38.4375 5.09844 38.6047 5.50156 38.8953 5.79203C39.1859 6.08281 39.5891 6.25 40 6.25Z" fill="#092C6D"/>
</g>
<defs>
<clipPath id="clip0">
<rect width="80" height="80" fill="white"/>
</clipPath>
</defs>
</svg>
