<svg width="153" height="50" viewBox="0 0 153 50" fill="none" xmlns="http://www.w3.org/2000/svg">
<path d="M105.394 7.08325V17.2103H103.122V15.9806C102.428 16.9162 101.405 17.3839 100.055 17.3839C98.8592 17.3839 97.9236 17.0078 97.2485 16.2555C96.583 15.4935 96.2502 14.4133 96.2502 13.0148V7.08325H98.5939V12.9425C98.5939 13.7527 98.782 14.3651 99.1582 14.7798C99.544 15.1849 100.065 15.3875 100.721 15.3875C101.425 15.3875 101.989 15.1704 102.413 14.7364C102.838 14.2928 103.05 13.6417 103.05 12.7833V7.08325H105.394Z" fill="white"/>
<path d="M108.46 9.42714H110.703V12.4653H114.088V9.42714H116.345V17.2105H114.088V14.3026H110.703V17.2105H108.46V9.42714Z" fill="white"/>
<path d="M128.893 9.3114C129.867 9.3114 130.639 9.60075 131.208 10.1794C131.787 10.7485 132.076 11.6069 132.076 12.7546V17.2105H129.819V13.1018C129.819 12.4846 129.689 12.0264 129.428 11.7274C129.178 11.4188 128.816 11.2645 128.343 11.2645C127.813 11.2645 127.393 11.4381 127.085 11.7853C126.776 12.1229 126.622 12.6292 126.622 13.3044V17.2105H124.365V13.1018C124.365 11.8769 123.873 11.2645 122.889 11.2645C122.368 11.2645 121.954 11.4381 121.645 11.7853C121.336 12.1229 121.182 12.6292 121.182 13.3044V17.2105H118.925V9.42714H121.081V10.3241C121.37 9.99618 121.722 9.74542 122.137 9.57181C122.561 9.3982 123.024 9.3114 123.526 9.3114C124.075 9.3114 124.572 9.42232 125.016 9.64415C125.46 9.85633 125.816 10.1698 126.086 10.5845C126.405 10.1794 126.805 9.86598 127.287 9.64415C127.779 9.42232 128.314 9.3114 128.893 9.3114Z" fill="white"/>
<path d="M138.354 15.5179C138.759 15.5179 139.116 15.46 139.424 15.3442C139.743 15.2189 140.037 15.026 140.307 14.7656L141.508 16.0676C140.775 16.9067 139.704 17.3263 138.296 17.3263C137.418 17.3263 136.642 17.1575 135.967 16.8199C135.292 16.4727 134.771 15.9953 134.404 15.3876C134.038 14.78 133.855 14.0904 133.855 13.3188C133.855 12.5569 134.033 11.8721 134.39 11.2645C134.756 10.6472 135.253 10.1698 135.88 9.83222C136.517 9.48501 137.23 9.3114 138.021 9.3114C138.764 9.3114 139.439 9.47054 140.047 9.78882C140.654 10.0975 141.136 10.5508 141.493 11.1487C141.86 11.7371 142.043 12.4363 142.043 13.2465L136.285 14.3605C136.449 14.7463 136.705 15.0356 137.052 15.2285C137.409 15.4214 137.843 15.5179 138.354 15.5179ZM138.021 11.0185C137.452 11.0185 136.989 11.2018 136.632 11.5683C136.275 11.9348 136.087 12.4411 136.068 13.0874L139.858 12.3495C139.752 11.9444 139.535 11.6213 139.207 11.3802C138.88 11.1391 138.484 11.0185 138.021 11.0185Z" fill="white"/>
<path d="M148.03 9.3114C148.86 9.3114 149.583 9.47536 150.201 9.80329C150.818 10.1312 151.295 10.599 151.633 11.2066C151.97 11.8142 152.139 12.5231 152.139 13.3333C152.139 14.1242 151.98 14.8234 151.662 15.431C151.343 16.029 150.895 16.4968 150.316 16.8344C149.738 17.1623 149.072 17.3263 148.32 17.3263C147.326 17.3263 146.55 17.0128 145.991 16.3859V20.0172H143.734V13.3478C143.734 12.5472 143.912 11.8432 144.269 11.2355C144.626 10.6279 145.127 10.1553 145.774 9.81775C146.42 9.48019 147.172 9.3114 148.03 9.3114ZM147.929 15.4745C148.517 15.4745 148.995 15.2767 149.361 14.8813C149.728 14.4859 149.911 13.9699 149.911 13.3333C149.911 12.6871 149.728 12.1663 149.361 11.7708C148.995 11.3658 148.517 11.1632 147.929 11.1632C147.341 11.1632 146.863 11.3609 146.497 11.7564C146.14 12.1518 145.962 12.6726 145.962 13.3188C145.962 13.965 146.14 14.4859 146.497 14.8813C146.854 15.2767 147.331 15.4745 147.929 15.4745Z" fill="white"/>
<path d="M100.918 27.9194C101.834 28.228 102.293 28.8453 102.293 29.7712C102.293 30.4753 102.027 31.0202 101.497 31.406C100.966 31.7918 100.176 31.9847 99.1243 31.9847H94.9722V24.2013H98.9507C99.9248 24.2013 100.687 24.3797 101.236 24.7366C101.786 25.0838 102.061 25.5757 102.061 26.2122C102.061 26.598 101.96 26.9404 101.757 27.2394C101.564 27.5288 101.285 27.7554 100.918 27.9194ZM97.041 27.3986H98.7481C99.539 27.3986 99.9344 27.1189 99.9344 26.5595C99.9344 26.0097 99.539 25.7348 98.7481 25.7348H97.041V27.3986ZM98.9362 30.4511C99.7657 30.4511 100.18 30.1666 100.18 29.5976C100.18 29.2986 100.084 29.0816 99.891 28.9466C99.6981 28.8019 99.3943 28.7295 98.9796 28.7295H97.041V30.4511H98.9362Z" fill="white"/>
<path d="M112.088 24.2013V31.9847H109.932V31.0732C109.643 31.4108 109.286 31.6664 108.862 31.84C108.447 32.0136 108.003 32.1004 107.531 32.1004C106.508 32.1004 105.693 31.8062 105.086 31.2179C104.488 30.6296 104.189 29.7567 104.189 28.5993V24.2013H106.446V28.2666C106.446 29.5204 106.971 30.1473 108.023 30.1473C108.572 30.1473 109.011 29.9737 109.339 29.6265C109.667 29.2697 109.831 28.744 109.831 28.0496V24.2013H112.088Z" fill="white"/>
<path d="M121.588 24.2013V31.9847H119.577V29.7567H117.914L116.438 31.9847H114.037L115.816 29.4384C115.276 29.2263 114.861 28.9224 114.572 28.527C114.292 28.1219 114.152 27.6349 114.152 27.0658C114.152 26.1496 114.48 25.4455 115.136 24.9536C115.802 24.4521 116.713 24.2013 117.87 24.2013H121.588ZM117.914 26.0386C117.431 26.0386 117.065 26.1254 116.814 26.299C116.573 26.4727 116.453 26.7524 116.453 27.1381C116.453 27.5239 116.568 27.8085 116.8 27.9917C117.041 28.1653 117.403 28.2521 117.885 28.2521H119.577V26.0386H117.914Z" fill="white"/>
<path d="M87.5607 21.6838C88.4963 21.6838 89.3113 21.8671 90.0057 22.2336C90.7001 22.6001 91.2402 23.1402 91.626 23.8539C92.0118 24.5676 92.2047 25.4309 92.2047 26.4436V31.9845H89.861V29.554H85.2315V31.9845H82.9167V26.4436C82.9167 25.4309 83.1096 24.5676 83.4954 23.8539C83.8812 23.1402 84.4213 22.6001 85.1158 22.2336C85.8102 21.8671 86.6252 21.6838 87.5607 21.6838ZM89.861 27.6733V26.2266C89.861 25.3875 89.6537 24.7557 89.2389 24.3313C88.8242 23.8973 88.26 23.6803 87.5463 23.6803C86.8229 23.6803 86.2539 23.8973 85.8391 24.3313C85.434 24.7557 85.2315 25.3875 85.2315 26.2266V27.6733H89.861Z" fill="white"/>
<path d="M82.9026 44.8748C83.3077 44.8748 83.6646 44.8169 83.9732 44.7012C84.2915 44.5758 84.5857 44.3829 84.8557 44.1225L86.0565 45.4245C85.3235 46.2636 84.2529 46.6832 82.8448 46.6832C81.9671 46.6832 81.1907 46.5144 80.5155 46.1768C79.8404 45.8296 79.3196 45.3522 78.9531 44.7446C78.5866 44.137 78.4033 43.4474 78.4033 42.6758C78.4033 41.9138 78.5817 41.229 78.9386 40.6214C79.3051 40.0041 79.8018 39.5267 80.4287 39.1892C81.0653 38.8419 81.779 38.6683 82.5699 38.6683C83.3125 38.6683 83.9877 38.8275 84.5953 39.1458C85.2029 39.4544 85.6852 39.9077 86.042 40.5057C86.4085 41.094 86.5918 41.7933 86.5918 42.6034L80.8338 43.7174C80.9978 44.1032 81.2534 44.3925 81.6006 44.5854C81.9574 44.7783 82.3915 44.8748 82.9026 44.8748ZM82.5699 40.3755C82.0008 40.3755 81.5379 40.5587 81.181 40.9252C80.8242 41.2917 80.6361 41.7981 80.6168 42.4443L84.4072 41.7065C84.3011 41.3014 84.0841 40.9783 83.7562 40.7372C83.4283 40.496 83.0328 40.3755 82.5699 40.3755Z" fill="white"/>
<path d="M92.5792 38.6683C93.4086 38.6683 94.132 38.8323 94.7493 39.1602C95.3665 39.4881 95.844 39.9559 96.1815 40.5635C96.5191 41.1712 96.6879 41.8801 96.6879 42.6902C96.6879 43.4811 96.5288 44.1804 96.2105 44.788C95.8922 45.386 95.4437 45.8537 94.865 46.1913C94.2863 46.5192 93.6208 46.6832 92.8685 46.6832C91.8751 46.6832 91.0987 46.3697 90.5393 45.7428V49.3741H88.2824V42.7047C88.2824 41.9042 88.4608 41.2001 88.8177 40.5925C89.1746 39.9849 89.6761 39.5123 90.3223 39.1747C90.9685 38.8371 91.7208 38.6683 92.5792 38.6683ZM92.4779 44.8314C93.0663 44.8314 93.5437 44.6337 93.9102 44.2382C94.2767 43.8428 94.4599 43.3268 94.4599 42.6902C94.4599 42.044 94.2767 41.5232 93.9102 41.1278C93.5437 40.7227 93.0663 40.5201 92.4779 40.5201C91.8896 40.5201 91.4122 40.7179 91.0457 41.1133C90.6888 41.5087 90.5104 42.0296 90.5104 42.6758C90.5104 43.322 90.6888 43.8428 91.0457 44.2382C91.4025 44.6337 91.8799 44.8314 92.4779 44.8314Z" fill="white"/>
<path d="M104.658 42.5022C105.574 42.8108 106.033 43.4281 106.033 44.354C106.033 45.058 105.767 45.603 105.237 45.9888C104.706 46.3746 103.916 46.5675 102.864 46.5675H98.7122V38.7841H102.691C103.665 38.7841 104.427 38.9625 104.976 39.3194C105.526 39.6666 105.801 40.1585 105.801 40.795C105.801 41.1808 105.7 41.5232 105.497 41.8222C105.304 42.1115 105.025 42.3382 104.658 42.5022ZM100.781 41.9813H102.488C103.279 41.9813 103.674 41.7016 103.674 41.1422C103.674 40.5925 103.279 40.3176 102.488 40.3176H100.781V41.9813ZM102.676 45.0339C103.506 45.0339 103.92 44.7494 103.92 44.1804C103.92 43.8814 103.824 43.6644 103.631 43.5293C103.438 43.3847 103.134 43.3123 102.72 43.3123H100.781V45.0339H102.676Z" fill="white"/>
<path d="M115.828 38.7841V46.5675H113.672V45.656C113.383 45.9936 113.026 46.2492 112.602 46.4228C112.187 46.5964 111.743 46.6832 111.271 46.6832C110.248 46.6832 109.433 46.389 108.826 45.8007C108.228 45.2124 107.929 44.3395 107.929 43.1821V38.7841H110.186V42.8494C110.186 44.1032 110.711 44.7301 111.763 44.7301C112.312 44.7301 112.751 44.5565 113.079 44.2093C113.407 43.8524 113.571 43.3268 113.571 42.6324V38.7841H115.828Z" fill="white"/>
<path d="M122.117 46.6832C121.287 46.6832 120.54 46.5144 119.874 46.1768C119.218 45.8296 118.702 45.3522 118.326 44.7446C117.96 44.137 117.777 43.4474 117.777 42.6758C117.777 41.9042 117.96 41.2146 118.326 40.6069C118.702 39.9993 119.218 39.5267 119.874 39.1892C120.54 38.8419 121.287 38.6683 122.117 38.6683C122.936 38.6683 123.65 38.8419 124.258 39.1892C124.875 39.5267 125.324 40.0138 125.603 40.6503L123.853 41.5907C123.448 40.877 122.864 40.5201 122.102 40.5201C121.514 40.5201 121.027 40.713 120.641 41.0988C120.255 41.4846 120.062 42.0103 120.062 42.6758C120.062 43.3413 120.255 43.8669 120.641 44.2527C121.027 44.6385 121.514 44.8314 122.102 44.8314C122.874 44.8314 123.457 44.4745 123.853 43.7608L125.603 44.7156C125.324 45.3329 124.875 45.8152 124.258 46.1624C123.65 46.5096 122.936 46.6832 122.117 46.6832Z" fill="white"/>
<path d="M72.9831 46.7409C71.9511 46.7409 71.0155 46.5191 70.1764 46.0754C69.347 45.6221 68.6911 45 68.2089 44.2091C67.7363 43.4086 67.5 42.5068 67.5 41.5037C67.5 40.5007 67.7363 39.6037 68.2089 38.8128C68.6911 38.0123 69.347 37.3902 70.1764 36.9466C71.0155 36.4933 71.9559 36.2666 72.9976 36.2666C73.8752 36.2666 74.6661 36.4209 75.3702 36.7296C76.0839 37.0382 76.6819 37.4819 77.1641 38.0605L75.6595 39.4494C74.9747 38.6585 74.126 38.2631 73.1133 38.2631C72.4864 38.2631 71.927 38.4029 71.4351 38.6826C70.9432 38.9527 70.5574 39.3337 70.2777 39.8255C70.0077 40.3174 69.8726 40.8768 69.8726 41.5037C69.8726 42.1307 70.0077 42.6901 70.2777 43.1819C70.5574 43.6738 70.9432 44.0596 71.4351 44.3393C71.927 44.6094 72.4864 44.7444 73.1133 44.7444C74.126 44.7444 74.9747 44.3442 75.6595 43.5436L77.1641 44.9325C76.6819 45.5208 76.0839 45.9693 75.3702 46.2779C74.6565 46.5866 73.8608 46.7409 72.9831 46.7409Z" fill="white"/>
<path d="M33.8325 30.493C31.5911 32.1433 28.9803 33.7443 26.2216 35.3206C14.6699 41.897 3.80781 44.5325 1.91125 41.232C1.34475 40.2467 1.66495 38.8428 2.6748 37.1679C0.433418 39.8527 -0.527175 42.094 0.285634 43.5226C2.28071 47.0202 14.2265 43.9906 27.0098 36.7246C29.6945 35.1975 32.798 33.227 35.064 31.6507C34.6453 31.4536 34.2266 31.2566 33.8325 30.493Z" fill="white"/>
<path d="M35.0142 31.6991C35.0388 31.6745 35.0634 31.6745 35.0881 31.6499C34.9896 31.6006 34.891 31.5514 34.8171 31.5267C34.8664 31.6006 34.9403 31.6499 35.0142 31.6991Z" fill="white"/>
<path d="M0.336162 40.9113C0.286901 41.4778 0.385423 41.9704 0.607098 42.3891C2.57754 45.9359 14.1047 43.0788 26.2968 36.0344C29.1293 34.4088 31.7894 32.7093 34.1293 30.9852C34.0308 30.862 33.9323 30.6896 33.8091 30.4926C31.5677 32.1428 28.9569 33.7438 26.1983 35.3201C14.6465 41.8965 3.78444 44.532 1.88789 41.2315C1.32139 40.2463 1.64158 38.8423 2.65144 37.1674C1.54306 38.5467 0.754882 39.8275 0.336162 40.9113Z" fill="white"/>
<path d="M33.4379 29.3599C20.3836 36.3796 8.09299 39.015 6.09791 35.2958C5.50678 34.1875 5.87624 32.6111 7.05851 30.7884C4.4723 33.7195 3.36392 36.2072 4.22599 37.8081C6.34422 41.7737 19.694 38.7441 34.1521 30.9855C33.8566 30.7638 33.7088 30.0495 33.4379 29.3599Z" fill="white"/>
<path d="M35.0368 17.2312C34.3225 17.0103 33.9038 16.2985 34.224 15.6358C34.421 15.2185 34.8151 15.0221 35.2584 14.8503C35.2831 14.7276 35.3077 14.6294 35.3323 14.5066C35.1599 14.1385 35.086 13.7457 35.1107 13.353C35.0121 13.2794 34.9136 13.2057 34.8151 13.083C34.2979 12.4202 33.4604 12.1011 32.7954 11.4384C31.958 10.6038 31.6378 9.37655 32.155 8.29653C32.0565 8.22289 31.9826 8.10016 31.9333 7.97743C31.8594 7.78106 32.1057 7.29014 32.1796 7.31469C32.3767 7.33923 32.5737 7.33923 32.7954 7.36378C33.4112 6.70104 34.1501 6.33285 34.9875 6.18558C35.0121 6.16103 35.0368 6.16103 35.0614 6.13648C35.1353 6.11194 35.2092 6.08739 35.2584 6.08739C35.3323 6.08739 35.4062 6.08739 35.4801 6.11194C36.8594 5.96466 38.3865 6.28376 39.7166 6.52922C40.0121 6.18558 40.357 5.84193 40.825 5.40011C40.9481 5.27738 41.0713 5.17919 41.1944 5.08101C39.1747 3.97644 36.958 3.19097 34.6427 2.74914C34.0023 4.07463 33.0417 5.20374 31.9087 6.18558C30.5786 7.33923 29.0269 8.32107 27.5245 9.22927C27.0811 9.49928 26.49 9.76928 26.0712 9.47473C25.5786 9.13109 25.7757 8.37016 25.9727 7.83015C26.2437 7.06923 26.49 6.25921 26.3668 5.4492C26.2437 4.63918 25.7018 3.85371 24.889 3.68189C24.0762 3.51007 23.1648 4.17281 23.2387 4.98282C23.3373 5.76829 24.224 6.23467 24.3964 6.99559C24.5934 7.80561 23.9038 8.61562 23.1156 8.86108C22.3274 9.10654 21.4653 8.93472 20.6525 8.7629C20.3323 8.68926 19.9136 8.46835 20.0121 8.1738C20.1353 7.73197 20.9973 7.92834 21.0959 7.48651C21.1698 7.04468 20.4308 7.06923 20.0614 7.33923C18.5097 8.37016 16.9333 9.42564 15.3816 10.4566C15.1353 10.6284 14.889 10.8002 14.8397 11.0948C14.7166 11.8311 15.7018 11.4139 15.9481 11.6839C16.3914 12.1257 15.6033 12.9603 16.5392 12.8866C17.1303 12.8375 17.6722 11.512 17.9432 11.0948C18.3372 10.4811 18.953 9.86747 19.6673 9.9411C20.0368 9.96565 20.357 10.162 20.7018 10.2111C21.0712 10.2602 21.5146 10.0147 21.4653 9.6711C21.8348 9.79383 22.1057 10.162 22.2042 10.5548C22.352 11.0948 22.2042 11.6102 22.2289 12.1502C22.2289 12.2975 22.5491 13.7212 22.5983 13.6475C22.352 14.0648 21.7116 14.0157 21.2683 13.7703C20.8496 13.5248 20.4555 13.1566 19.9629 13.1321C19.4703 13.083 18.953 13.6966 19.2978 14.0403C19.5441 14.3103 20.1106 14.2366 20.2092 14.6048C20.2584 14.8012 20.1106 14.9976 19.9629 15.1448C19.5934 15.5376 19.1993 15.9549 18.6821 16.1512C18.1648 16.323 17.4752 16.1758 17.2535 15.6849C16.5146 17.1085 15.3569 18.3358 13.9776 19.1458C13.3865 19.514 12.6476 19.9313 12.6476 20.6186C12.6476 20.864 12.7707 21.1095 12.7707 21.3795C12.7707 21.625 12.623 21.9441 12.3766 21.9441C11.9087 21.9441 12.0318 21.1586 11.7609 20.7659C11.5638 20.4713 11.1451 20.4468 10.8003 20.4713C10.0367 20.4959 9.27319 20.5449 8.55891 20.8395C8.41112 20.9131 8.23871 20.9868 8.11556 21.0604C7.91851 22.1159 7.81999 23.1959 7.79536 24.3005C8.48502 24.595 9.44561 24.0796 9.44561 23.3186C9.8397 24.2023 10.2584 25.1105 10.9234 25.8469C11.5885 26.5832 12.5491 27.0987 13.5097 27.0005C14.1993 26.9269 14.8151 26.5587 15.5047 26.3869C16.8348 26.0923 18.1895 26.6323 19.421 27.1723L26.5639 30.2897C26.7363 30.3633 26.9087 30.437 27.0072 30.6088C27.0811 30.7315 27.1057 30.8542 27.1057 30.977C29.0023 30.1424 30.9235 29.1851 32.8693 28.1542C32.3028 27.6878 31.8594 27.0496 31.5639 26.3132C30.7018 25.8223 30.4309 25.5278 30.4555 24.865C30.4555 24.3496 30.7757 23.9568 31.1205 23.6623C31.1698 23.0241 31.3668 22.4104 31.7363 21.9195C32.1304 21.3795 32.7461 21.0359 33.1895 20.5204C33.6575 19.9558 34.0023 19.3176 34.4949 18.7776C34.9383 18.3113 35.554 17.8449 36.1944 17.5013C36.1205 17.4276 36.0466 17.3785 35.9727 17.2803C35.6279 17.3049 35.3323 17.3294 35.0368 17.2312ZM50.9728 34.0943C47.4506 41.949 39.5442 47.4473 30.3323 47.4473C27.8446 47.4473 25.4555 47.03 23.2141 46.2936C22.9432 45.7045 22.82 45.0418 22.8693 44.4036C22.9185 43.2745 23.3373 42.219 23.7806 41.1881C24.0269 40.6235 24.2486 40.0344 24.5195 39.4944C25.5786 38.9544 26.6378 38.3653 27.6969 37.7762C30.4062 36.2298 33.5343 34.2661 35.8496 32.6461L36.9333 31.8852C37.0319 32.3761 37.1057 32.867 37.2043 33.3088C37.5491 35.0761 37.623 35.5671 38.4358 35.8125L38.6328 35.8616H38.8299C39.7905 35.8616 40.6772 34.708 40.7018 34.6834C40.8003 34.5116 40.8496 34.4625 40.9481 33.8979C41.0713 34.6834 41.0959 35.4934 41.2683 36.2543C41.6378 38.1444 42.4752 39.9853 43.0663 41.8263C43.1156 41.9735 43.1649 42.1208 43.288 42.1945C43.5097 42.3417 43.8053 42.1945 44.0269 42.0226C44.8151 41.4826 45.6033 40.9426 46.3176 40.329C46.8348 39.9117 47.3028 39.4453 47.5491 38.8071C47.7708 38.218 47.623 37.5307 47.9678 36.9662C48.3373 36.3771 49.1747 36.2789 49.6181 35.7634C50.5048 34.7325 49.7659 33.7507 49.7659 32.597C49.7659 31.8361 50.0122 31.247 50.3816 30.7315C50.5048 30.977 50.6033 31.247 50.7018 31.517C50.9235 32.3515 50.8989 33.2352 50.9728 34.0943ZM10.4062 35.5425C8.78058 32.5234 7.81999 29.1115 7.7461 25.4787C8.953 26.1169 10.1353 26.7796 11.3422 27.4178C11.8594 27.6878 12.4259 28.0069 12.6968 28.5224C13.2633 29.5042 12.623 30.7315 12.7461 31.8606C12.8693 33.1861 13.953 34.0943 14.9629 35.027C13.3372 35.3461 11.8594 35.518 10.6032 35.518C10.5047 35.5425 10.4555 35.5425 10.4062 35.5425ZM19.1008 42.2926C19.5934 43.4218 20.2338 44.5509 21.0466 45.4591C19.5441 44.7963 18.1402 43.9618 16.8594 43.0045C17.5737 42.7099 18.288 42.4154 19.0269 42.0963C19.0515 42.1699 19.0762 42.219 19.1008 42.2926ZM30.4555 50.0001C24.8397 50.0001 19.3471 48.11 14.9629 44.6491C14.889 44.5754 14.3717 44.2072 14.2732 44.1336L15.1845 43.839C19.4949 47.3 24.9136 49.2146 30.4309 49.2146C39.2979 49.2146 47.4752 44.4036 51.7363 36.6471L51.687 38.2671C47.155 45.5327 39.1255 50.0001 30.4555 50.0001ZM5.6525 28.9151C5.45546 27.6387 5.35693 26.3132 5.35693 25.0123C5.35693 11.2175 16.6131 0 30.4555 0C37.7708 0 44.692 3.16643 49.4703 8.68926L48.1895 8.4438C43.6082 3.55916 37.2043 0.78547 30.4555 0.78547C17.0565 0.78547 6.14511 11.6593 6.14511 25.0123C6.14511 26.0923 6.219 27.1478 6.36679 28.2278L5.6525 28.9151Z" fill="white"/>
<path d="M11.9826 27.8105C10.7018 28.2278 9.39635 28.6206 8.09093 28.9642C7.89388 27.8351 7.7461 26.6569 7.72147 25.4787C8.92837 26.1169 10.1106 26.7796 11.3175 27.4178C11.5392 27.5405 11.7855 27.6633 11.9826 27.8105ZM12.352 21.8704C11.884 21.8704 12.0072 21.085 11.7363 20.6922C11.5392 20.3977 11.1205 20.3731 10.7757 20.3977C10.0121 20.4222 9.24856 20.4713 8.53428 20.7659C8.38649 20.8395 8.21408 20.9131 8.09093 20.9868C7.89388 22.0422 7.79536 23.1223 7.77073 24.2268C8.46039 24.5214 9.42098 24.0059 9.42098 23.245C9.81507 24.1287 10.2338 25.0369 10.8988 25.7732C11.5638 26.5096 12.5244 27.0251 13.485 26.9269C14.1747 26.8533 14.7904 26.4851 15.4801 26.3132C15.7757 26.2396 16.0959 26.2151 16.3914 26.2396C16.4653 26.2151 16.5638 26.166 16.6377 26.1414C20.6033 24.3987 24.4456 22.3368 27.9432 19.8086C30.2584 17.9185 32.352 15.8321 34.2486 13.5494C34.3964 13.353 34.5442 13.1321 34.6919 12.9112C34.1747 12.3466 33.4358 12.0275 32.82 11.4384C31.9826 10.6038 31.6624 9.37655 32.1796 8.29653C32.0811 8.22289 32.0072 8.10016 31.958 7.97743C31.8841 7.78106 32.1304 7.29014 32.2043 7.31469C32.4013 7.33923 32.5984 7.33923 32.82 7.36378C33.4358 6.70104 34.1747 6.33285 35.0121 6.18558C35.0368 6.16103 35.0614 6.16103 35.086 6.13648C35.1599 6.11194 35.2338 6.08739 35.2831 6.08739C35.357 6.08739 35.4309 6.08739 35.5048 6.11194C36.5146 6.01375 37.623 6.16103 38.6575 6.33285C39.0023 5.67011 39.3225 4.98282 39.6181 4.29554C38.0417 3.60825 36.3915 3.06824 34.6427 2.74914C34.0023 4.07463 33.0417 5.20374 31.9087 6.18558C30.5786 7.33923 29.0269 8.32107 27.5245 9.22927C27.0811 9.49928 26.49 9.76928 26.0712 9.47473C25.5786 9.13109 25.7757 8.37016 25.9727 7.83015C26.2437 7.06923 26.49 6.25921 26.3668 5.4492C26.2437 4.63918 25.7018 3.85371 24.889 3.68189C24.1008 3.51007 23.1648 4.17281 23.2387 4.98282C23.3373 5.76829 24.224 6.23467 24.3964 6.99559C24.5934 7.80561 23.9038 8.61562 23.1156 8.86108C22.3274 9.10654 21.4653 8.93472 20.6525 8.7629C20.3323 8.68926 19.9136 8.46835 20.0121 8.1738C20.1353 7.73197 20.9973 7.92834 21.0959 7.48651C21.1698 7.04468 20.4308 7.06923 20.0614 7.33923C18.5097 8.37016 16.9333 9.42564 15.3816 10.4566C15.1353 10.6284 14.889 10.8002 14.8397 11.0948C14.7166 11.8311 15.7018 11.4139 15.9481 11.6839C16.3914 12.1257 15.6033 12.9603 16.5392 12.8866C17.1303 12.8375 17.6722 11.512 17.9432 11.0948C18.3372 10.4811 18.953 9.86747 19.6673 9.9411C20.0368 9.96565 20.357 10.162 20.7018 10.2111C21.0712 10.2602 21.5146 10.0147 21.4653 9.6711C21.8348 9.79383 22.1057 10.162 22.2042 10.5548C22.352 11.0948 22.2042 11.6102 22.2289 12.1502C22.2289 12.2975 22.5491 13.7212 22.5983 13.6475C22.352 14.0648 21.7116 14.0157 21.2683 13.7703C20.8496 13.5248 20.4555 13.1566 19.9629 13.1321C19.4703 13.083 18.953 13.6966 19.2978 14.0403C19.5441 14.3103 20.1106 14.2366 20.2092 14.6048C20.2584 14.8012 20.1106 14.9976 19.9629 15.1448C19.5934 15.5376 19.1993 15.9549 18.6821 16.1512C18.1648 16.323 17.4752 16.1758 17.2535 15.6849C16.5146 17.1085 15.3569 18.3358 13.9776 19.1458C13.3865 19.514 12.6476 19.9313 12.6476 20.6186C12.6476 20.864 12.7707 21.1095 12.7707 21.3795C12.7707 21.5759 12.5983 21.8704 12.352 21.8704ZM5.6525 28.9151C5.45546 27.6387 5.35693 26.3132 5.35693 25.0123C5.35693 11.2175 16.6131 0 30.4555 0C33.953 0 37.3767 0.736378 40.5048 2.0864C40.4062 2.33186 40.3077 2.55278 40.2092 2.82278C37.1796 1.4973 33.8545 0.78547 30.4555 0.78547C17.0565 0.78547 6.14511 11.6593 6.14511 25.0123C6.14511 26.0923 6.219 27.1478 6.36679 28.2278L5.6525 28.9151Z" fill="white"/>
<path d="M83.2391 11.5155C82.7679 11.3276 82.2653 11.2337 81.7941 11.1085C81.323 10.9832 80.8518 10.9206 80.3806 10.7954C79.0613 10.3883 77.7106 10.4197 76.3913 10.7328C74.6322 11.1711 72.936 11.8286 71.2711 12.5174C69.4178 13.3002 67.5331 14.0516 65.6798 14.8344C65.2714 14.9909 64.8631 15.1788 64.4547 15.3666C64.2977 15.4293 64.2034 15.4293 64.1092 15.2727C63.5752 14.5839 63.2611 14.49 62.4129 14.7717C61.1565 15.1788 59.9 15.5545 58.6749 15.9928C58.2666 16.1181 57.921 15.9302 57.5755 15.8363C55.785 15.3353 54.0259 14.7717 52.2669 14.2082C49.7853 13.3941 47.3038 12.58 44.8222 11.766C42.749 11.0772 40.7073 10.357 38.6341 9.66821C38.5398 9.6369 38.4142 9.60559 38.2885 9.60559C37.1891 9.6369 36.0583 9.69952 34.9589 9.76214C34.9274 9.76214 34.8646 9.76214 34.8332 9.79345C34.8646 9.82476 34.9274 9.85607 34.9589 9.88738C36.5295 10.9832 38.3199 11.7347 40.0476 12.5174C40.3303 12.6427 40.5816 12.7679 40.8643 12.8931C40.8957 12.9245 41.5868 13.2376 41.5554 13.2689C41.5554 13.3002 41.524 13.3002 41.4925 13.3315C41.3041 13.5193 40.6758 13.9577 41.147 14.1769C43.1888 15.0848 45.1992 16.0555 47.2095 17.0261C48.2461 17.527 49.2827 17.9967 50.3193 18.4663C51.1989 18.8734 52.2983 19.1552 52.8009 20.0631C53.0208 20.4389 52.9265 20.4389 52.4868 20.658C52.1726 20.8146 51.8271 20.9085 51.513 21.0338C50.2565 21.5973 49 22.1296 47.7435 22.6932C47.3666 22.8811 47.0525 22.7245 46.7698 22.474C45.796 21.5973 44.8536 20.6894 43.8799 19.8127C43.3773 19.343 42.8747 18.8421 42.3407 18.3724C42.058 18.1219 41.8695 18.0906 41.524 18.2785C41.0842 18.4976 40.6758 18.6855 40.2361 18.9047C40.0162 18.9986 39.8905 19.1238 39.9534 19.4369C40.2989 21.1277 40.6444 22.8497 40.99 24.5405C41.0214 24.6657 41.0214 24.791 41.0528 24.9788C40.3617 24.791 39.7021 24.6344 39.0738 24.4779C37.6289 24.1335 36.1525 23.7577 34.7076 23.4133C34.4877 23.3507 34.2678 23.4133 34.0479 23.4759C33.7024 23.6012 33.3883 23.7577 33.0427 23.9143C33.0427 23.9456 33.0427 23.9769 33.0427 24.0082C35.3044 25.0101 37.5346 26.0121 39.8591 27.0766C39.6078 27.2958 39.3879 27.4836 39.1681 27.6715C38.9168 27.922 38.6341 28.1098 38.6969 28.5482C38.7283 28.83 38.8225 28.9552 39.1367 28.9552C40.2047 28.9239 41.2727 28.9552 42.3407 28.8613C42.9689 28.7987 43.4087 29.0178 43.9113 29.2996C44.6337 29.7693 45.3876 30.2076 46.1415 30.6459C46.2358 30.7086 46.3614 30.7712 46.4556 30.7399C46.8012 30.6146 47.1467 30.4581 47.4608 30.2702C47.5237 30.2389 47.5551 29.9884 47.5237 29.8945C47.3352 29.5188 47.1467 29.1431 46.9268 28.7673C46.8954 28.6734 46.8326 28.5795 46.7698 28.4542C47.0839 28.4229 47.3352 28.3603 47.5865 28.3603C49.1257 28.2351 50.6334 27.922 52.1412 27.5463C53.4291 27.2018 54.6856 26.7635 55.9421 26.3878C56.0991 26.3565 56.2562 26.2938 56.3818 26.3252C57.6697 26.4191 58.9262 26.2312 60.1199 25.8242C60.6225 25.6676 61.0936 25.8242 61.5648 25.9807C62.0674 26.1686 62.6014 26.3252 63.104 26.4817C63.6066 26.6383 64.172 26.7322 64.6432 26.9514C65.8997 27.5463 66.4651 28.7987 67.4075 29.7066C67.5645 29.8632 67.753 30.145 67.9729 30.1763C68.1927 30.1763 68.3812 29.9258 68.5069 29.7693C68.5697 29.7066 69.3236 30.4894 69.355 30.552C69.6377 30.9277 69.8262 31.3348 69.9518 31.7731C69.9204 31.7418 70.4858 31.3035 70.5172 31.2721C70.6115 31.1782 71.6167 30.2389 71.7109 30.3328C71.7109 30.3328 71.7109 30.3328 71.7423 30.3328C71.8051 30.2702 71.868 30.2076 71.9308 30.145C71.6795 29.2057 71.4282 28.2977 71.1455 27.3897C71.0827 27.1705 71.1141 27.0453 71.3968 27.0453C72.6532 26.9827 73.9411 26.4504 75.0091 25.7929C76.1086 25.1041 75.7945 23.1942 74.7264 22.5993C74.538 22.474 74.2553 22.4114 74.0354 22.474C73.1873 22.6932 72.3705 22.9437 71.5224 23.1942C71.2397 23.2881 70.9884 23.382 70.7371 23.4446C70.3916 23.5386 70.2974 23.4759 70.1717 23.1315C70.0461 22.7245 69.9204 22.3488 69.7948 21.9418C69.7633 21.8478 69.7948 21.66 69.889 21.5973C70.2974 21.1903 70.7057 20.752 71.2083 20.4389C71.6166 20.1571 72.1507 20.0005 72.6218 19.8127C75.1348 18.8107 77.6478 17.8088 79.9723 16.4625C81.1659 15.7737 82.3596 15.0848 83.3333 14.0829C83.5218 13.8951 83.6789 13.7072 83.8045 13.488C84.2443 12.58 84.0244 11.8599 83.2391 11.5155ZM76.6426 13.3002C76.14 13.5507 75.5432 13.3002 75.3233 12.7992C75.1348 12.2669 75.4175 11.7034 75.9829 11.5468C76.6426 11.3903 77.4593 11.1711 77.8676 11.0459C78.6529 10.7954 80.6005 11.3276 80.6005 11.3276L76.6426 13.3002Z" fill="white"/>
</svg>
