<svg width="184" height="61" viewBox="0 0 184 61" fill="none" xmlns="http://www.w3.org/2000/svg">
<path d="M127.465 9.09558V21.3435H124.718V19.8562C123.878 20.9877 122.642 21.5534 121.009 21.5534C119.562 21.5534 118.431 21.0985 117.614 20.1887C116.809 19.2672 116.407 17.9607 116.407 16.2693V9.09558H119.241V16.1819C119.241 17.1617 119.469 17.9024 119.924 18.404C120.39 18.8939 121.02 19.1388 121.814 19.1388C122.665 19.1388 123.347 18.8764 123.861 18.3515C124.374 17.8149 124.631 17.0275 124.631 15.9894V9.09558H127.465Z" fill="#FF0000"/>
<path d="M131.174 11.9303H133.886V15.6046H137.98V11.9303H140.71V21.3436H137.98V17.8267H133.886V21.3436H131.174V11.9303Z" fill="#092C6D"/>
<path d="M155.886 11.7903C157.064 11.7903 157.997 12.1402 158.685 12.8401C159.385 13.5283 159.735 14.5665 159.735 15.9546V21.3436H157.005V16.3745C157.005 15.628 156.848 15.0739 156.533 14.7123C156.23 14.339 155.792 14.1524 155.221 14.1524C154.579 14.1524 154.072 14.3623 153.699 14.7823C153.325 15.1905 153.139 15.8029 153.139 16.6195V21.3436H150.409V16.3745C150.409 14.8931 149.814 14.1524 148.624 14.1524C147.995 14.1524 147.493 14.3623 147.12 14.7823C146.746 15.1905 146.56 15.8029 146.56 16.6195V21.3436H143.83V11.9303H146.437V13.0151C146.787 12.6185 147.213 12.3152 147.715 12.1052C148.228 11.8953 148.788 11.7903 149.394 11.7903C150.059 11.7903 150.66 11.9244 151.196 12.1927C151.733 12.4493 152.165 12.8284 152.491 13.33C152.876 12.8401 153.36 12.461 153.944 12.1927C154.538 11.9244 155.186 11.7903 155.886 11.7903Z" fill="#092C6D"/>
<path d="M167.328 19.2965C167.818 19.2965 168.249 19.2265 168.623 19.0865C169.007 18.9349 169.363 18.7016 169.69 18.3866L171.142 19.9614C170.256 20.9762 168.961 21.4836 167.258 21.4836C166.196 21.4836 165.257 21.2795 164.441 20.8712C163.624 20.4513 162.994 19.8739 162.551 19.139C162.108 18.4041 161.886 17.5701 161.886 16.6369C161.886 15.7154 162.102 14.8872 162.534 14.1524C162.977 13.4058 163.578 12.8284 164.336 12.4202C165.106 12.0002 165.969 11.7903 166.925 11.7903C167.824 11.7903 168.64 11.9827 169.375 12.3677C170.11 12.741 170.693 13.2892 171.125 14.0124C171.568 14.7239 171.789 15.5696 171.789 16.5495L164.826 17.8967C165.024 18.3633 165.333 18.7133 165.753 18.9465C166.185 19.1798 166.71 19.2965 167.328 19.2965ZM166.925 13.8549C166.237 13.8549 165.677 14.0766 165.246 14.5198C164.814 14.9631 164.587 15.5755 164.563 16.357L169.147 15.4646C169.019 14.9747 168.757 14.584 168.36 14.2924C167.963 14.0007 167.485 13.8549 166.925 13.8549Z" fill="#092C6D"/>
<path d="M179.031 11.7903C180.034 11.7903 180.909 11.9886 181.655 12.3852C182.402 12.7818 182.979 13.3475 183.388 14.0824C183.796 14.8173 184 15.6746 184 16.6544C184 17.6109 183.807 18.4566 183.423 19.1915C183.038 19.9147 182.495 20.4805 181.795 20.8887C181.095 21.2853 180.291 21.4836 179.381 21.4836C178.179 21.4836 177.24 21.1045 176.564 20.3463V24.738H173.834V16.6719C173.834 15.7038 174.05 14.8523 174.482 14.1174C174.913 13.3825 175.52 12.8109 176.301 12.4027C177.083 11.9944 177.993 11.7903 179.031 11.7903ZM178.908 19.244C179.62 19.244 180.197 19.0049 180.64 18.5266C181.084 18.0484 181.305 17.4243 181.305 16.6544C181.305 15.8729 181.084 15.243 180.64 14.7648C180.197 14.2749 179.62 14.0299 178.908 14.0299C178.197 14.0299 177.619 14.269 177.176 14.7473C176.745 15.2255 176.529 15.8554 176.529 16.6369C176.529 17.4185 176.745 18.0484 177.176 18.5266C177.608 19.0049 178.185 19.244 178.908 19.244Z" fill="#092C6D"/>
<path d="M122.053 34.2952C123.161 34.6685 123.715 35.415 123.715 36.5348C123.715 37.3863 123.394 38.0454 122.752 38.512C122.111 38.9785 121.154 39.2118 119.883 39.2118H114.861V29.7985H119.673C120.851 29.7985 121.773 30.0143 122.438 30.4459C123.102 30.8658 123.435 31.4607 123.435 32.2305C123.435 32.6971 123.312 33.1112 123.067 33.4728C122.834 33.8228 122.496 34.0969 122.053 34.2952ZM117.363 33.6653H119.428C120.385 33.6653 120.863 33.327 120.863 32.6505C120.863 31.9856 120.385 31.6531 119.428 31.6531H117.363V33.6653ZM119.656 37.3572C120.659 37.3572 121.16 37.0131 121.16 36.3248C121.16 35.9632 121.044 35.7008 120.81 35.5375C120.577 35.3625 120.21 35.275 119.708 35.275H117.363V37.3572H119.656Z" fill="#092C6D"/>
<path d="M135.561 29.7985V39.2118H132.954V38.1095C132.604 38.5178 132.173 38.8269 131.66 39.0369C131.158 39.2468 130.622 39.3518 130.05 39.3518C128.813 39.3518 127.828 38.996 127.093 38.2845C126.37 37.573 126.008 36.5173 126.008 35.1175V29.7985H128.738V34.7151C128.738 36.2315 129.373 36.9897 130.645 36.9897C131.31 36.9897 131.84 36.7798 132.237 36.3598C132.634 35.9282 132.832 35.2925 132.832 34.4527V29.7985H135.561Z" fill="#092C6D"/>
<path d="M147.052 29.7985V39.2118H144.619V36.5173H142.607L140.823 39.2118H137.918L140.07 36.1324C139.417 35.8757 138.915 35.5083 138.566 35.0301C138.227 34.5401 138.058 33.9511 138.058 33.2629C138.058 32.1547 138.455 31.3032 139.248 30.7083C140.053 30.1017 141.155 29.7985 142.555 29.7985H147.052ZM142.607 32.0206C142.024 32.0206 141.581 32.1256 141.278 32.3355C140.986 32.5455 140.84 32.8838 140.84 33.3504C140.84 33.8169 140.98 34.161 141.26 34.3827C141.552 34.5926 141.989 34.6976 142.572 34.6976H144.619V32.0206H142.607Z" fill="#092C6D"/>
<path d="M105.898 26.7538C107.029 26.7538 108.015 26.9754 108.855 27.4187C109.694 27.8619 110.348 28.5151 110.814 29.3783C111.281 30.2415 111.514 31.2855 111.514 32.5103V39.2116H108.68V36.2721H103.081V39.2116H100.281V32.5103C100.281 31.2855 100.514 30.2415 100.981 29.3783C101.447 28.5151 102.101 27.8619 102.941 27.4187C103.78 26.9754 104.766 26.7538 105.898 26.7538ZM108.68 33.9975V32.2478C108.68 31.233 108.429 30.469 107.927 29.9557C107.426 29.4308 106.743 29.1684 105.88 29.1684C105.005 29.1684 104.317 29.4308 103.815 29.9557C103.325 30.469 103.081 31.233 103.081 32.2478V33.9975H108.68Z" fill="#FF0000"/>
<path d="M100.264 54.8012C100.754 54.8012 101.186 54.7313 101.559 54.5913C101.944 54.4396 102.3 54.2064 102.626 53.8914L104.078 55.4661C103.192 56.481 101.897 56.9884 100.194 56.9884C99.1326 56.9884 98.1936 56.7842 97.3771 56.376C96.5605 55.956 95.9307 55.3786 95.4874 54.6438C95.0441 53.9089 94.8225 53.0749 94.8225 52.1417C94.8225 51.2202 95.0383 50.392 95.4699 49.6571C95.9132 48.9106 96.5139 48.3332 97.2721 47.9249C98.042 47.505 98.9051 47.295 99.8616 47.295C100.76 47.295 101.576 47.4875 102.311 47.8724C103.046 48.2457 103.629 48.794 104.061 49.5172C104.504 50.2287 104.726 51.0744 104.726 52.0542L97.762 53.4015C97.9603 53.8681 98.2694 54.218 98.6893 54.4513C99.1209 54.6846 99.6458 54.8012 100.264 54.8012ZM99.8616 49.3597C99.1734 49.3597 98.6135 49.5813 98.1819 50.0246C97.7503 50.4678 97.5229 51.0802 97.4995 51.8618L102.084 50.9694C101.955 50.4795 101.693 50.0887 101.296 49.7971C100.9 49.5055 100.422 49.3597 99.8616 49.3597Z" fill="#092C6D"/>
<path d="M111.967 47.295C112.97 47.295 113.845 47.4933 114.592 47.8899C115.338 48.2865 115.916 48.8523 116.324 49.5871C116.732 50.322 116.936 51.1794 116.936 52.1592C116.936 53.1157 116.744 53.9614 116.359 54.6963C115.974 55.4195 115.431 55.9852 114.732 56.3935C114.032 56.7901 113.227 56.9884 112.317 56.9884C111.116 56.9884 110.177 56.6093 109.5 55.8511V60.2428H106.77V52.1767C106.77 51.2085 106.986 50.357 107.418 49.6221C107.849 48.8873 108.456 48.3157 109.238 47.9074C110.019 47.4992 110.929 47.295 111.967 47.295ZM111.845 54.7488C112.556 54.7488 113.134 54.5096 113.577 54.0314C114.02 53.5531 114.242 52.9291 114.242 52.1592C114.242 51.3777 114.02 50.7478 113.577 50.2695C113.134 49.7796 112.556 49.5347 111.845 49.5347C111.133 49.5347 110.556 49.7738 110.112 50.252C109.681 50.7303 109.465 51.3602 109.465 52.1417C109.465 52.9232 109.681 53.5531 110.112 54.0314C110.544 54.5096 111.121 54.7488 111.845 54.7488Z" fill="#092C6D"/>
<path d="M126.576 51.9317C127.684 52.305 128.238 53.0516 128.238 54.1714C128.238 55.0229 127.917 55.6819 127.276 56.1485C126.634 56.6151 125.678 56.8484 124.406 56.8484H119.384V47.435H124.196C125.374 47.435 126.296 47.6508 126.961 48.0824C127.626 48.5023 127.958 49.0972 127.958 49.8671C127.958 50.3337 127.835 50.7478 127.591 51.1094C127.357 51.4593 127.019 51.7334 126.576 51.9317ZM121.887 51.3019H123.951C124.908 51.3019 125.386 50.9636 125.386 50.287C125.386 49.6221 124.908 49.2897 123.951 49.2897H121.887V51.3019ZM124.179 54.9937C125.182 54.9937 125.683 54.6496 125.683 53.9614C125.683 53.5998 125.567 53.3373 125.333 53.174C125.1 52.9991 124.733 52.9116 124.231 52.9116H121.887V54.9937H124.179Z" fill="#092C6D"/>
<path d="M140.085 47.435V56.8484H137.478V55.7461C137.128 56.1543 136.696 56.4635 136.183 56.6734C135.681 56.8834 135.145 56.9884 134.573 56.9884C133.337 56.9884 132.351 56.6326 131.616 55.9211C130.893 55.2095 130.531 54.1539 130.531 52.7541V47.435H133.261V52.3517C133.261 53.8681 133.897 54.6263 135.168 54.6263C135.833 54.6263 136.364 54.4163 136.76 53.9964C137.157 53.5648 137.355 52.9291 137.355 52.0892V47.435H140.085Z" fill="#092C6D"/>
<path d="M147.69 56.9884C146.687 56.9884 145.783 56.7842 144.978 56.376C144.185 55.956 143.561 55.3786 143.106 54.6438C142.663 53.9089 142.441 53.0749 142.441 52.1417C142.441 51.2085 142.663 50.3745 143.106 49.6396C143.561 48.9048 144.185 48.3332 144.978 47.9249C145.783 47.505 146.687 47.295 147.69 47.295C148.682 47.295 149.545 47.505 150.28 47.9249C151.026 48.3332 151.569 48.9223 151.907 49.6921L149.79 50.8294C149.3 49.9662 148.594 49.5347 147.673 49.5347C146.961 49.5347 146.372 49.768 145.906 50.2345C145.439 50.7011 145.206 51.3368 145.206 52.1417C145.206 52.9466 145.439 53.5823 145.906 54.0489C146.372 54.5155 146.961 54.7488 147.673 54.7488C148.606 54.7488 149.312 54.3172 149.79 53.454L151.907 54.6088C151.569 55.3553 151.026 55.9386 150.28 56.3585C149.545 56.7784 148.682 56.9884 147.69 56.9884Z" fill="#092C6D"/>
<path d="M88.2673 57.0582C87.0192 57.0582 85.8878 56.7899 84.8729 56.2533C83.8698 55.7051 83.0766 54.9527 82.4933 53.9962C81.9218 53.0281 81.636 51.9374 81.636 50.7243C81.636 49.5112 81.9218 48.4264 82.4933 47.4698C83.0766 46.5017 83.8698 45.7493 84.8729 45.2127C85.8878 44.6645 87.0251 44.3904 88.2848 44.3904C89.3463 44.3904 90.3028 44.577 91.1543 44.9503C92.0175 45.3236 92.7407 45.8601 93.324 46.56L91.5043 48.2397C90.6761 47.2832 89.6496 46.805 88.4248 46.805C87.6666 46.805 86.9901 46.9741 86.3952 47.3124C85.8003 47.639 85.3337 48.0997 84.9954 48.6946C84.6688 49.2895 84.5055 49.9661 84.5055 50.7243C84.5055 51.4825 84.6688 52.159 84.9954 52.7539C85.3337 53.3488 85.8003 53.8154 86.3952 54.1537C86.9901 54.4803 87.6666 54.6436 88.4248 54.6436C89.6496 54.6436 90.6761 54.1595 91.5043 53.1914L93.324 54.8711C92.7407 55.5826 92.0175 56.125 91.1543 56.4983C90.2912 56.8716 89.3288 57.0582 88.2673 57.0582Z" fill="#FF0000"/>
<path d="M40.9177 37.408C38.2069 39.4038 35.0493 41.3401 31.713 43.2465C17.7421 51.2001 4.60524 54.3875 2.31151 50.3958C1.62637 49.2043 2.01362 47.5063 3.23496 45.4807C0.524184 48.7277 -0.637576 51.4384 0.345452 53.1662C2.75834 57.3962 17.2059 53.7322 32.6662 44.9445C35.9132 43.0976 39.6665 40.7145 42.4071 38.808C41.9007 38.5697 41.3943 38.3314 40.9177 37.408Z" fill="#FF0000"/>
<path d="M42.3467 38.8666C42.3765 38.8368 42.4063 38.8368 42.4361 38.807C42.3169 38.7474 42.1978 38.6879 42.1084 38.6581C42.168 38.7474 42.2573 38.807 42.3467 38.8666Z" fill="url(#paint0_linear)"/>
<path d="M0.406637 50.0079C0.347059 50.693 0.466214 51.2888 0.734313 51.7952C3.11741 56.0847 17.0585 52.6293 31.8039 44.1097C35.2296 42.1436 38.4468 40.0882 41.2767 38.003C41.1576 37.8541 41.0384 37.6455 40.8895 37.4072C38.1787 39.4031 35.0211 41.3393 31.6848 43.2458C17.7139 51.1994 4.57706 54.3868 2.28333 50.3951C1.59819 49.2036 1.98544 47.5056 3.20678 45.48C1.86628 47.1481 0.913045 48.6971 0.406637 50.0079Z" fill="#FF0000"/>
<path d="M40.4402 36.0374C24.6522 44.5271 9.78765 47.7145 7.37476 43.2164C6.65983 41.8759 7.10666 39.9695 8.53652 37.7651C5.40871 41.31 4.06821 44.3186 5.11082 46.2549C7.67265 51.0509 23.8181 47.3869 41.3041 38.0034C40.9466 37.7353 40.7679 36.8714 40.4402 36.0374Z" fill="#FF0000"/>
<path d="M42.3742 21.3687C41.5103 21.1016 41.0039 20.2407 41.3911 19.4391C41.6294 18.9345 42.1061 18.697 42.6423 18.4892C42.672 18.3407 42.7018 18.222 42.7316 18.0736C42.5231 17.6283 42.4337 17.1533 42.4635 16.6783C42.3444 16.5892 42.2252 16.5002 42.1061 16.3518C41.4805 15.5502 40.4677 15.1643 39.6634 14.3628C38.6506 13.3534 38.2633 11.8691 38.8889 10.5629C38.7697 10.4739 38.6804 10.3254 38.6208 10.177C38.5314 9.9395 38.8293 9.34577 38.9187 9.37546C39.157 9.40515 39.3953 9.40515 39.6634 9.43483C40.4081 8.6333 41.3018 8.18801 42.3146 8.00989C42.3444 7.9802 42.3742 7.9802 42.4039 7.95052C42.4933 7.92083 42.5827 7.89114 42.6423 7.89114C42.7316 7.89114 42.821 7.89114 42.9104 7.92083C44.5785 7.74271 46.4254 8.12863 48.034 8.4255C48.3915 8.00989 48.8085 7.59428 49.3745 7.05993C49.5234 6.91149 49.6724 6.79275 49.8213 6.674C47.3787 5.33812 44.6977 4.38815 41.8975 3.8538C41.123 5.45686 39.9613 6.82243 38.591 8.00989C36.9824 9.40515 35.1057 10.5926 33.2886 11.691C32.7524 12.0175 32.0375 12.3441 31.5311 11.9879C30.9353 11.5722 31.1736 10.652 31.4119 9.99887C31.7396 9.0786 32.0375 8.09895 31.8885 7.1193C31.7396 6.13965 31.0842 5.18969 30.1012 4.98188C29.1182 4.77408 28.016 5.57561 28.1054 6.55526C28.2245 7.50522 29.2969 8.06926 29.5054 8.98954C29.7437 9.96919 28.9097 10.9488 27.9564 11.2457C27.0032 11.5426 25.9606 11.3348 24.9775 11.127C24.5903 11.0379 24.0839 10.7707 24.203 10.4145C24.352 9.88013 25.3946 10.1176 25.5137 9.58326C25.6031 9.04891 24.7095 9.0786 24.2626 9.40515C22.3859 10.652 20.4795 11.9285 18.6028 13.1753C18.3049 13.3831 18.007 13.5909 17.9474 13.9472C17.7985 14.8377 18.99 14.3331 19.2879 14.6596C19.8241 15.194 18.8709 16.2033 20.0028 16.1143C20.7178 16.0549 21.3731 14.4518 21.7008 13.9472C22.1774 13.205 22.9221 12.4628 23.786 12.5519C24.2328 12.5816 24.6201 12.8191 25.0371 12.8784C25.484 12.9378 26.0202 12.641 25.9606 12.2253C26.4074 12.3738 26.7351 12.8191 26.8542 13.2941C27.033 13.9472 26.8542 14.5706 26.884 15.2237C26.884 15.4018 27.2713 17.1236 27.3309 17.0345C27.033 17.5392 26.2585 17.4798 25.7223 17.183C25.2159 16.8861 24.7392 16.4408 24.1435 16.4111C23.5477 16.3518 22.9221 17.0939 23.3392 17.5095C23.6371 17.8361 24.3222 17.747 24.4414 18.1923C24.5009 18.4298 24.3222 18.6673 24.1435 18.8454C23.6966 19.3204 23.22 19.8251 22.5944 20.0625C21.9689 20.2703 21.1348 20.0922 20.8667 19.4985C19.973 21.2203 18.573 22.7046 16.9048 23.6843C16.1899 24.1296 15.2962 24.6342 15.2962 25.4655C15.2962 25.7623 15.4452 26.0592 15.4452 26.3857C15.4452 26.6826 15.2664 27.0685 14.9685 27.0685C14.4026 27.0685 14.5515 26.1186 14.2238 25.6436C13.9855 25.2873 13.4791 25.2577 13.0621 25.2873C12.1386 25.317 11.2152 25.3764 10.3513 25.7326C10.1726 25.8217 9.96404 25.9108 9.81509 25.9998C9.57679 27.2763 9.45763 28.5825 9.42784 29.9184C10.2619 30.2746 11.4237 29.6512 11.4237 28.731C11.9003 29.7997 12.4067 30.8981 13.211 31.7886C14.0153 32.6792 15.1771 33.3027 16.3388 33.1839C17.1729 33.0948 17.9176 32.6496 18.7517 32.4417C20.3603 32.0855 21.9987 32.7386 23.4881 33.3917L32.1268 37.1619C32.3354 37.2509 32.5439 37.34 32.663 37.5478C32.7524 37.6962 32.7822 37.8447 32.7822 37.9931C35.0759 36.9838 37.3994 35.826 39.7528 34.5792C39.0676 34.0151 38.5314 33.2433 38.1739 32.3527C37.1313 31.759 36.8037 31.4027 36.8335 30.6012C36.8335 29.9778 37.2207 29.5028 37.6377 29.1466C37.6973 28.3747 37.9356 27.6326 38.3825 27.0388C38.8591 26.3857 39.6038 25.9701 40.14 25.3467C40.706 24.6639 41.123 23.8921 41.7188 23.239C42.255 22.6749 42.9997 22.1109 43.7742 21.6953C43.6849 21.6062 43.5955 21.5469 43.5061 21.4281C43.0891 21.4578 42.7316 21.4875 42.3742 21.3687ZM61.6474 41.7633C57.3877 51.2629 47.8255 57.9126 36.6845 57.9126C33.6759 57.9126 30.7863 57.408 28.0756 56.5174C27.7479 55.8049 27.599 55.0034 27.6585 54.2315C27.7181 52.8659 28.2245 51.5894 28.7607 50.3426C29.0586 49.6598 29.3267 48.9473 29.6544 48.2943C30.9353 47.6412 32.2162 46.9287 33.4971 46.2162C36.7739 44.346 40.557 41.9711 43.3572 40.0118L44.6679 39.0915C44.787 39.6852 44.8764 40.2789 44.9956 40.8133C45.4126 42.9507 45.502 43.5444 46.485 43.8413L46.7233 43.9007H46.9616C48.1234 43.9007 49.1958 42.5054 49.2256 42.4757C49.3447 42.2679 49.4043 42.2086 49.5234 41.5258C49.6724 42.4757 49.7022 43.4554 49.9107 44.3757C50.3575 46.6615 51.3703 48.888 52.0853 51.1145C52.1448 51.2926 52.2044 51.4707 52.3534 51.5597C52.6215 51.7379 52.9789 51.5597 53.247 51.3519C54.2003 50.6988 55.1535 50.0457 56.0174 49.3036C56.6429 48.7989 57.2089 48.2349 57.5068 47.463C57.7749 46.7506 57.5962 45.9193 58.0132 45.2366C58.4601 44.5241 59.4729 44.4053 60.0091 43.7819C61.0815 42.5351 60.1878 41.3476 60.1878 39.9524C60.1878 39.0321 60.4857 38.3196 60.9325 37.6962C61.0815 37.9931 61.2006 38.3196 61.3198 38.6462C61.5879 39.6555 61.5581 40.7242 61.6474 41.7633ZM12.5854 43.5148C10.6194 39.8633 9.45763 35.7369 9.36826 31.3434C10.8279 32.1152 12.2578 32.9167 13.7174 33.6886C14.343 34.0151 15.0281 34.401 15.3558 35.0245C16.0409 36.2119 15.2664 37.6962 15.4154 39.0618C15.5643 40.6649 16.875 41.7633 18.0964 42.8913C16.1303 43.2773 14.343 43.4851 12.8238 43.4851C12.7046 43.5148 12.645 43.5148 12.5854 43.5148ZM23.1009 51.6785C23.6966 53.0441 24.4711 54.4096 25.4542 55.508C23.6371 54.7065 21.9391 53.6972 20.3901 52.5394C21.254 52.1832 22.1178 51.8269 23.0115 51.441C23.0413 51.5301 23.0711 51.5894 23.1009 51.6785ZM36.8335 61C30.0416 61 23.3987 58.7142 18.0964 54.5284C18.007 54.4393 17.3814 53.994 17.2623 53.905L18.3645 53.5487C23.5775 57.7345 30.131 60.05 36.8037 60.05C47.5276 60.05 57.4174 54.2315 62.5709 44.8506L62.5113 46.8099C57.0302 55.5971 47.3191 61 36.8335 61ZM6.83622 35.4994C6.59791 33.9557 6.47876 32.3527 6.47876 30.7793C6.47876 14.0956 20.0922 0.528931 36.8335 0.528931C45.6807 0.528931 54.0513 4.35847 59.8303 11.0379L58.2813 10.741C52.7406 4.83345 44.9956 1.47889 36.8335 1.47889C20.6284 1.47889 7.432 14.6299 7.432 30.7793C7.432 32.0855 7.52136 33.362 7.7001 34.6682L6.83622 35.4994Z" fill="#092C6D"/>
<path d="M14.4919 34.1636C12.9429 34.6682 11.3641 35.1432 9.78531 35.5588C9.547 34.1932 9.36826 32.7683 9.33848 31.3434C10.7981 32.1152 12.228 32.9167 13.6876 33.6886C13.9557 33.837 14.2536 33.9854 14.4919 34.1636ZM14.9388 26.9795C14.3728 26.9795 14.5217 26.0295 14.194 25.5545C13.9557 25.1983 13.4493 25.1686 13.0323 25.1983C12.1088 25.228 11.1854 25.2873 10.3215 25.6436C10.1428 25.7326 9.93425 25.8217 9.78531 25.9108C9.547 27.1873 9.42784 28.4935 9.39805 29.8294C10.2321 30.1856 11.3939 29.5622 11.3939 28.6419C11.8705 29.7106 12.3769 30.809 13.1812 31.6996C13.9855 32.5902 15.1473 33.2136 16.309 33.0948C17.1431 33.0058 17.8878 32.5605 18.7219 32.3527C19.0794 32.2636 19.4666 32.2339 19.8241 32.2636C19.9135 32.2339 20.0326 32.1746 20.122 32.1449C24.918 30.0372 29.565 27.5435 33.795 24.4858C36.5951 22.2 39.1272 19.6766 41.4209 16.9158C41.5996 16.6783 41.7784 16.4111 41.9571 16.1439C41.3315 15.4612 40.4379 15.0752 39.6932 14.3628C38.6804 13.3534 38.2931 11.8691 38.9187 10.5629C38.7995 10.4739 38.7101 10.3254 38.6506 10.177C38.5612 9.9395 38.8591 9.34577 38.9485 9.37546C39.1868 9.40515 39.4251 9.40515 39.6932 9.43483C40.4379 8.6333 41.3316 8.18801 42.3444 8.00989C42.3742 7.9802 42.4039 7.9802 42.4337 7.95052C42.5231 7.92083 42.6125 7.89114 42.672 7.89114C42.7614 7.89114 42.8508 7.89114 42.9401 7.92083C44.1615 7.80208 45.502 7.9802 46.7531 8.18801C47.1701 7.38648 47.5574 6.55526 47.9149 5.72404C46.0084 4.89282 44.0125 4.23972 41.8975 3.8538C41.123 5.45686 39.9613 6.82244 38.591 8.00989C36.9824 9.40515 35.1057 10.5926 33.2886 11.691C32.7524 12.0175 32.0375 12.3441 31.5311 11.9879C30.9353 11.5723 31.1736 10.652 31.4119 9.99887C31.7396 9.0786 32.0375 8.09895 31.8885 7.1193C31.7396 6.13965 31.0842 5.18969 30.1012 4.98188C29.148 4.77408 28.016 5.57561 28.1054 6.55526C28.2245 7.50522 29.2969 8.06926 29.5054 8.98954C29.7437 9.96919 28.9097 10.9488 27.9564 11.2457C27.0032 11.5426 25.9606 11.3348 24.9775 11.127C24.5903 11.0379 24.0839 10.7707 24.203 10.4145C24.352 9.88013 25.3946 10.1176 25.5137 9.58327C25.6031 9.04891 24.7095 9.0786 24.2626 9.40515C22.3859 10.652 20.4795 11.9285 18.6028 13.1753C18.3049 13.3831 18.007 13.5909 17.9474 13.9472C17.7985 14.8377 18.99 14.3331 19.2879 14.6596C19.8241 15.194 18.8709 16.2033 20.0028 16.1143C20.7178 16.0549 21.3731 14.4518 21.7008 13.9472C22.1774 13.205 22.9221 12.4628 23.786 12.5519C24.2328 12.5816 24.6201 12.8191 25.0371 12.8784C25.484 12.9378 26.0202 12.641 25.9606 12.2254C26.4074 12.3738 26.7351 12.8191 26.8542 13.2941C27.033 13.9472 26.8542 14.5706 26.884 15.2237C26.884 15.4018 27.2713 17.1236 27.3309 17.0345C27.033 17.5392 26.2585 17.4798 25.7223 17.183C25.2159 16.8861 24.7392 16.4408 24.1435 16.4111C23.5477 16.3518 22.9221 17.0939 23.3392 17.5095C23.6371 17.8361 24.3222 17.747 24.4414 18.1923C24.5009 18.4298 24.3222 18.6673 24.1435 18.8454C23.6966 19.3204 23.22 19.8251 22.5944 20.0625C21.9689 20.2703 21.1348 20.0922 20.8667 19.4985C19.973 21.2203 18.573 22.7046 16.9048 23.6843C16.1899 24.1296 15.2962 24.6342 15.2962 25.4655C15.2962 25.7623 15.4452 26.0592 15.4452 26.3857C15.4452 26.6232 15.2366 26.9795 14.9388 26.9795ZM6.83622 35.4994C6.59791 33.9558 6.47876 32.3527 6.47876 30.7793C6.47876 14.0956 20.0922 0.528931 36.8335 0.528931C41.0634 0.528931 45.2041 1.41952 48.9872 3.05227C48.8681 3.34913 48.7489 3.61631 48.6298 3.94286C44.9658 2.3398 40.9443 1.47889 36.8335 1.47889C20.6284 1.47889 7.432 14.6299 7.432 30.7793C7.432 32.0855 7.52136 33.362 7.7001 34.6682L6.83622 35.4994Z" fill="#092C6D"/>
<path d="M100.671 14.4561C100.101 14.2289 99.4932 14.1153 98.9233 13.9639C98.3535 13.8124 97.7836 13.7367 97.2138 13.5852C95.6182 13.0929 93.9846 13.1308 92.389 13.5095C90.2615 14.0396 88.2101 14.8348 86.1966 15.6679C83.9552 16.6145 81.6758 17.5234 79.4343 18.47C78.9404 18.6594 78.4466 18.8866 77.9527 19.1138C77.7627 19.1895 77.6488 19.1895 77.5348 19.0002C76.889 18.1671 76.5091 18.0535 75.4833 18.3943C73.9637 18.8866 72.4441 19.341 70.9625 19.8711C70.4686 20.0226 70.0507 19.7954 69.6328 19.6818C67.4674 19.0759 65.3399 18.3943 63.2125 17.7127C60.2112 16.7281 57.21 15.7436 54.2088 14.7591C51.7014 13.926 49.232 13.055 46.7247 12.222C46.6107 12.1841 46.4587 12.1462 46.3068 12.1462C44.9771 12.1841 43.6095 12.2598 42.2798 12.3356C42.2418 12.3356 42.1658 12.3356 42.1278 12.3734C42.1658 12.4113 42.2418 12.4492 42.2798 12.487C44.1793 13.8124 46.3448 14.7212 48.4342 15.6679C48.7762 15.8193 49.0801 15.9708 49.422 16.1223C49.46 16.1601 50.2958 16.5388 50.2578 16.5767C50.2578 16.6145 50.2198 16.6145 50.1818 16.6524C49.9538 16.8796 49.194 17.4098 49.7639 17.6748C52.2333 18.773 54.6646 19.9468 57.096 21.1207C58.3497 21.7266 59.6034 22.2946 60.8571 22.8626C61.9208 23.3549 63.2505 23.6957 63.8583 24.7938C64.1242 25.2482 64.0103 25.2482 63.4784 25.5133C63.0985 25.7026 62.6806 25.8162 62.3007 25.9677C60.7811 26.6493 59.2615 27.293 57.7419 27.9746C57.286 28.2018 56.9061 28.0125 56.5642 27.7096C55.3865 26.6493 54.2468 25.5512 53.0691 24.4909C52.4612 23.9229 51.8534 23.317 51.2075 22.749C50.8656 22.4461 50.6377 22.4082 50.2198 22.6354C49.6879 22.9005 49.194 23.1277 48.6622 23.3927C48.3962 23.5063 48.2443 23.6578 48.3203 24.0365C48.7382 26.0813 49.1561 28.164 49.5739 30.2088C49.6119 30.3603 49.6119 30.5117 49.6499 30.7389C48.8141 30.5117 48.0163 30.3224 47.2565 30.1331C45.509 29.7165 43.7234 29.2621 41.9759 28.8456C41.71 28.7699 41.444 28.8456 41.1781 28.9213C40.7602 29.0728 40.3803 29.2621 39.9624 29.4515C39.9624 29.4893 39.9624 29.5272 39.9624 29.5651C42.6977 30.7768 45.395 31.9886 48.2063 33.276C47.9024 33.5411 47.6364 33.7683 47.3705 33.9955C47.0666 34.2984 46.7247 34.5256 46.8007 35.0558C46.8386 35.3966 46.9526 35.548 47.3325 35.548C48.6242 35.5102 49.9159 35.548 51.2075 35.4344C51.9673 35.3587 52.4992 35.6238 53.107 35.9646C53.9808 36.5326 54.8926 37.0627 55.8044 37.5929C55.9183 37.6686 56.0703 37.7443 56.1843 37.7065C56.6021 37.555 57.02 37.3657 57.3999 37.1385C57.4759 37.1006 57.5139 36.7977 57.4759 36.6841C57.248 36.2297 57.02 35.7752 56.7541 35.3208C56.7161 35.2072 56.6401 35.0936 56.5642 34.9422C56.9441 34.9043 57.248 34.8286 57.5519 34.8286C59.4134 34.6771 61.237 34.2984 63.0605 33.844C64.6181 33.4275 66.1377 32.8974 67.6573 32.443C67.8473 32.4051 68.0372 32.3294 68.1892 32.3672C69.7468 32.4808 71.2664 32.2536 72.71 31.7613C73.3179 31.572 73.8877 31.7613 74.4576 31.9507C75.0654 32.1779 75.7113 32.3672 76.3191 32.5566C76.927 32.7459 77.6108 32.8595 78.1806 33.1246C79.7002 33.844 80.3841 35.3587 81.5238 36.4569C81.7137 36.6462 81.9417 36.987 82.2076 37.0249C82.4735 37.0249 82.7015 36.7219 82.8535 36.5326C82.9294 36.4569 83.8412 37.4035 83.8792 37.4793C84.2211 37.9337 84.449 38.4259 84.601 38.9561C84.563 38.9182 85.2468 38.3881 85.2848 38.3502C85.3988 38.2366 86.6145 37.1006 86.7285 37.2142C86.7285 37.2142 86.7285 37.2142 86.7664 37.2142C86.8424 37.1385 86.9184 37.0627 86.9944 36.987C86.6905 35.851 86.3865 34.7528 86.0446 33.6547C85.9687 33.3896 86.0066 33.2382 86.3485 33.2382C87.8682 33.1624 89.4258 32.5187 90.7174 31.7235C92.0471 30.8904 91.6672 28.5805 90.3755 27.861C90.1476 27.7096 89.8057 27.6338 89.5397 27.7096C88.514 27.9746 87.5262 28.2776 86.5005 28.5805C86.1586 28.6941 85.8547 28.8077 85.5508 28.8835C85.1329 28.9971 85.0189 28.9213 84.8669 28.5048C84.715 28.0125 84.563 27.5581 84.411 27.0658C84.3731 26.9522 84.411 26.725 84.525 26.6493C85.0189 26.157 85.5128 25.6269 86.1206 25.2482C86.6145 24.9074 87.2603 24.7181 87.8302 24.4909C90.8694 23.2791 93.9086 22.0674 96.7199 20.4391C98.1635 19.606 99.6072 18.773 100.785 17.5612C101.013 17.334 101.203 17.1068 101.355 16.8417C101.887 15.7436 101.621 14.8727 100.671 14.4561ZM92.6929 16.6145C92.0851 16.9175 91.3633 16.6145 91.0973 16.0087C90.8694 15.3649 91.2113 14.6833 91.8951 14.494C92.6929 14.3047 93.6807 14.0396 94.1746 13.8881C95.1243 13.5852 97.4797 14.2289 97.4797 14.2289L92.6929 16.6145Z" fill="#FF0000"/>
<defs>
<linearGradient id="paint0_linear" x1="42.0944" y1="38.7668" x2="42.4355" y2="38.7668" gradientUnits="userSpaceOnUse">
<stop stop-color="#DC6400"/>
<stop offset="0.315" stop-color="#EA9310"/>
<stop offset="0.6115" stop-color="#F6B91C"/>
<stop offset="0.8498" stop-color="#FCD023"/>
<stop offset="1" stop-color="#FFD826"/>
</linearGradient>
</defs>
</svg>
