<svg width="80" height="80" viewBox="0 0 80 80" fill="none" xmlns="http://www.w3.org/2000/svg">
<g clip-path="url(#clip0)">
<path d="M79.3697 0.45735C78.9751 0.0628189 78.4001 -0.0917124 77.8605 0.0529751L9.42303 18.3908C8.88381 18.5353 8.46272 18.9564 8.31819 19.4956C8.17366 20.0349 8.32788 20.6102 8.72256 21.005L23.8174 36.0999V55.6917C23.8174 56.2161 24.0805 56.7056 24.5179 56.995C24.7774 57.1667 25.0777 57.2542 25.3801 57.2542C25.5871 57.2542 25.7951 57.2131 25.9915 57.1295L39.2207 51.5033L58.8222 71.1049C59.1191 71.4017 59.5182 71.5625 59.9272 71.5625C60.0619 71.5625 60.1977 71.5452 60.3315 71.5092C60.8707 71.3647 61.2918 70.9436 61.4363 70.4044L68.7849 42.9789C69.0083 42.1453 68.5136 41.2886 67.6801 41.0653C66.846 40.842 65.9899 41.3367 65.7665 42.1702L59.1182 66.9816L35.7424 43.6053L75.3368 6.45235L69.4066 28.5844C69.1832 29.418 69.6779 30.2747 70.5115 30.4981C71.3457 30.722 72.2016 30.2267 72.4251 29.3933L79.774 1.96673C79.9185 1.42751 79.7644 0.852194 79.3697 0.45735ZM32.4277 42.4303C32.3396 42.513 32.2615 42.6056 32.1948 42.7063L26.9424 50.6269V36.307L64.8247 12.0308L32.4277 42.4303ZM68.9497 5.67579L25.5955 33.4584L12.8458 20.7089L68.9497 5.67579ZM29.6688 52.1695L33.743 46.0256L36.838 49.1206L29.6688 52.1695Z" fill="#092C6D"/>
<path d="M14.5527 76.8749H12.0527C11.1899 76.8749 10.4902 77.5744 10.4902 78.4374C10.4902 79.3003 11.1899 79.9998 12.0527 79.9998H14.5527C15.4155 79.9998 16.1152 79.3003 16.1152 78.4374C16.1152 77.5744 15.4155 76.8749 14.5527 76.8749Z" fill="#092C6D"/>
<path d="M12.716 63.203C12.3623 62.416 11.4376 62.0644 10.6501 62.4185L8.36993 63.4435C7.5829 63.7972 7.23181 64.7222 7.5854 65.5093C7.84572 66.0885 8.41525 66.4315 9.0115 66.4315C9.22556 66.4315 9.44337 66.3872 9.65134 66.2936L11.9315 65.2686C12.7185 64.9149 13.0696 63.9901 12.716 63.203Z" fill="#092C6D"/>
<path d="M21.2646 59.3591C20.9106 58.5722 19.9862 58.2207 19.1987 58.5747L16.9185 59.5997C16.1315 59.9536 15.7804 60.8785 16.134 61.6655C16.3945 62.2446 16.9638 62.5877 17.5601 62.5877C17.7741 62.5877 17.992 62.5435 18.1999 62.4499L20.4801 61.4247C21.2673 61.0711 21.6185 60.1461 21.2646 59.3591Z" fill="#092C6D"/>
<path d="M3.20887 70.7632C3.41574 70.1707 3.73574 69.6356 4.15996 69.1725C4.74262 68.5361 4.69934 67.5478 4.06293 66.965C3.42637 66.382 2.43809 66.4256 1.85527 67.062C1.14324 67.8395 0.60621 68.7381 0.25871 69.7329C-0.0258208 70.5476 0.403867 71.4387 1.21871 71.7232C1.38918 71.7828 1.56293 71.8111 1.73387 71.8111C2.37965 71.8111 2.98387 71.4075 3.20887 70.7632Z" fill="#092C6D"/>
<path d="M5.82249 76.5402C5.24265 76.3049 4.72421 75.9587 4.2814 75.5112C3.67437 74.8977 2.68515 74.8924 2.07171 75.4993C1.45827 76.1062 1.45296 77.0956 2.05999 77.709C2.80234 78.4595 3.67296 79.0404 4.64765 79.4359C4.83999 79.514 5.0389 79.5509 5.23452 79.5509C5.85187 79.5509 6.43656 79.1826 6.68312 78.5754C7.00734 77.7759 6.62218 76.8648 5.82249 76.5402Z" fill="#092C6D"/>
<path d="M23.9277 76.8749H21.4277C20.5649 76.8749 19.8652 77.5744 19.8652 78.4374C19.8652 79.3003 20.5649 79.9998 21.4277 79.9998H23.9277C24.7905 79.9998 25.4902 79.3003 25.4902 78.4374C25.4902 77.5744 24.7905 76.8749 23.9277 76.8749Z" fill="#092C6D"/>
<path d="M42.6777 76.8749H40.1777C39.3149 76.8749 38.6152 77.5744 38.6152 78.4374C38.6152 79.3003 39.3149 79.9998 40.1777 79.9998H42.6777C43.5407 79.9998 44.2402 79.3003 44.2402 78.4374C44.2402 77.5744 43.5405 76.8749 42.6777 76.8749Z" fill="#092C6D"/>
<path d="M33.3027 76.8749H30.8027C29.9399 76.8749 29.2402 77.5744 29.2402 78.4374C29.2402 79.3003 29.9399 79.9998 30.8027 79.9998H33.3027C34.1655 79.9998 34.8652 79.3003 34.8652 78.4374C34.8652 77.5744 34.1655 76.8749 33.3027 76.8749Z" fill="#092C6D"/>
<path d="M69.0957 34.2186C68.6848 34.2186 68.2816 34.3858 67.9912 34.6764C67.7005 34.9671 67.5332 35.3702 67.5332 35.7811C67.5332 36.1921 67.7004 36.5952 67.9912 36.8858C68.2816 37.1764 68.6849 37.3436 69.0957 37.3436C69.5068 37.3436 69.9099 37.1764 70.2004 36.8858C70.491 36.5952 70.6582 36.1921 70.6582 35.7811C70.6582 35.3702 70.4912 34.9671 70.2004 34.6764C69.9099 34.3857 69.5068 34.2186 69.0957 34.2186Z" fill="#092C6D"/>
</g>
<defs>
<clipPath id="clip0">
<rect width="80" height="80" fill="white"/>
</clipPath>
</defs>
</svg>
